<svg width="1220" height="510" viewBox="0 0 1220 510" fill="none" xmlns="http://www.w3.org/2000/svg">
<g opacity="0.06">
<rect y="296.457" width="27.4157" height="32.8528" rx="2" fill="#6CC800"/>
<rect x="41.124" y="262.822" width="27.4157" height="100.123" rx="2" fill="#F06E10"/>
<rect x="82.2471" y="278.466" width="27.4157" height="68.8344" rx="2" fill="#F06E10"/>
<rect x="123.371" y="201.81" width="27.4157" height="81.3497" rx="2" fill="#6CC800"/>
<rect x="164.495" y="236.227" width="27.4157" height="26.5951" rx="2" fill="#F06E10"/>
<rect x="205.618" y="247.178" width="27.4157" height="48.4969" rx="2" fill="#6CC800"/>
<rect x="246.741" y="211.196" width="27.4157" height="64.1411" rx="2" fill="#F06E10"/>
<rect x="287.866" y="200.245" width="27.4157" height="73.5276" rx="2" fill="#F06E10"/>
<rect x="328.989" y="259.693" width="27.4157" height="90.7362" rx="2" fill="#6CC800"/>
<rect x="370.113" y="344.172" width="27.4157" height="40.6748" rx="2" fill="#6CC800"/>
<rect x="411.237" y="286.288" width="27.4157" height="61.0123" rx="2" fill="#F06E10"/>
<rect x="452.359" y="286.288" width="27.4157" height="95.4295" rx="2" fill="#6CC800"/>
<rect x="493.483" y="248.742" width="27.4157" height="48.4969" rx="2" fill="#F06E10"/>
<rect x="534.606" y="212.761" width="27.4157" height="209.632" rx="2" fill="#6CC800"/>
<rect x="575.73" y="228.405" width="27.4157" height="26.5951" rx="2" fill="#F06E10"/>
<rect x="616.854" y="143.926" width="27.4157" height="92.3006" rx="2" fill="#F06E10"/>
<rect x="657.977" y="25.0308" width="27.4157" height="222.147" rx="2" fill="#F06E10"/>
<rect x="699.103" y="154.877" width="27.4157" height="126.718" rx="2" fill="#6CC800"/>
<rect x="740.225" y="265.951" width="27.4157" height="64.1411" rx="2" fill="#6CC800"/>
<rect x="781.349" y="326.963" width="27.4157" height="53.1902" rx="2" fill="#6CC800"/>
<rect x="822.472" y="247.178" width="27.4157" height="90.7362" rx="2" fill="#F06E10"/>
<rect x="863.597" y="143.926" width="27.4157" height="176.779" rx="2" fill="#F06E10"/>
<rect x="904.719" y="286.288" width="27.4157" height="136.104" rx="2" fill="#6CC800"/>
<rect x="945.843" y="242.485" width="27.4157" height="115.767" rx="2" fill="#F06E10"/>
<rect x="986.967" y="320.706" width="27.4157" height="76.6564" rx="2" fill="#6CC800"/>
<rect x="1028.09" y="267.515" width="27.4157" height="90.7362" rx="2" fill="#F06E10"/>
<rect x="1069.21" y="299.586" width="27.4157" height="26.5951" rx="2" fill="#6CC800"/>
<rect x="1110.34" y="280.813" width="27.4157" height="64.1411" rx="2" fill="#F06E10"/>
<rect x="1151.46" y="303.497" width="27.4157" height="46.9325" rx="2" fill="#6CC800"/>
<rect x="1192.58" y="295.675" width="27.4157" height="34.4172" rx="2" fill="#F06E10"/>
<line x1="548.815" y1="177.279" x2="548.815" y2="509.5" stroke="#6CC800" stroke-linecap="round"/>
<line x1="343.197" y1="197.616" x2="343.197" y2="393.733" stroke="#6CC800" stroke-linecap="round"/>
<line x1="384.319" y1="349.365" x2="384.319" y2="429.715" stroke="#6CC800" stroke-linecap="round"/>
<line x1="137.58" y1="222.647" x2="137.58" y2="302.997" stroke="#6CC800" stroke-linecap="round"/>
<line x1="178.701" y1="203.874" x2="178.701" y2="284.224" stroke="#F06E10" stroke-linecap="round"/>
<line x1="672.185" y1="0.5" x2="672.185" y2="134.04" stroke="#F06E10" stroke-linecap="round"/>
<line x1="877.804" y1="67.7699" x2="877.804" y2="235.727" stroke="#F06E10" stroke-linecap="round"/>
<line x1="836.682" y1="272.709" x2="836.682" y2="353.058" stroke="#F06E10" stroke-linecap="round"/>
<line x1="589.938" y1="202.31" x2="589.938" y2="282.66" stroke="#F06E10" stroke-linecap="round"/>
<line x1="425.444" y1="272.709" x2="425.444" y2="373.396" stroke="#F06E10" stroke-linecap="round"/>
<line x1="260.949" y1="181.972" x2="260.949" y2="262.322" stroke="#F06E10" stroke-linecap="round"/>
<line x1="302.073" y1="155.377" x2="302.073" y2="235.727" stroke="#F06E10" stroke-linecap="round"/>
<line x1="960.052" y1="197.616" x2="960.052" y2="320.205" stroke="#F06E10" stroke-linecap="round"/>
<line x1="1042.3" y1="313.384" x2="1042.3" y2="410.942" stroke="#F06E10" stroke-linecap="round"/>
<line x1="1206.79" y1="269.58" x2="1206.79" y2="349.929" stroke="#F06E10" stroke-linecap="round"/>
<line x1="713.31" y1="111.574" x2="713.31" y2="312.384" stroke="#6CC800" stroke-linecap="round"/>
<line x1="754.432" y1="266.451" x2="754.432" y2="379.653" stroke="#6CC800" stroke-linecap="round"/>
<line x1="918.928" y1="232.034" x2="918.928" y2="345.236" stroke="#6CC800" stroke-linecap="round"/>
<line x1="1001.17" y1="327.463" x2="1001.17" y2="487.598" stroke="#6CC800" stroke-linecap="round"/>
<line x1="1165.67" y1="280.531" x2="1165.67" y2="393.733" stroke="#6CC800" stroke-linecap="round"/>
</g>
</svg>
