<svg width="24" height="24" viewBox="0 0 24 24" fill="none" xmlns="http://www.w3.org/2000/svg">
<g opacity="0.48">
<path d="M0 2.11765C0 0.948103 0.848304 0 1.89474 0H22.1053C23.1517 0 24 0.948103 24 2.11765C24 3.28719 23.1517 4.23529 22.1053 4.23529H1.89474C0.848304 4.23529 0 3.28719 0 2.11765Z" fill="white"/>
<path d="M0 12C0 10.8305 0.848304 9.88235 1.89474 9.88235H22.1053C23.1517 9.88235 24 10.8305 24 12C24 13.1695 23.1517 14.1176 22.1053 14.1176H1.89474C0.848304 14.1176 0 13.1695 0 12Z" fill="white"/>
<path d="M1.89474 19.7647C0.848304 19.7647 0 20.7128 0 21.8824C0 23.0519 0.848304 24 1.89474 24H22.1053C23.1517 24 24 23.0519 24 21.8824C24 20.7128 23.1517 19.7647 22.1053 19.7647H1.89474Z" fill="white"/>
</g>
</svg>
